# xmcd
#
# Track frame offsets:
#	150
#	16312
#	29175
#
# Disc length: 610 seconds
#
# Revision: 0
# Processed by: cddbd v1.5.1PL0 Copyright (c) Steve Scherf et al.
# Submitted via: audiograbber 1.83.01
#
DISCID=20026003
DTITLE=Volker Rosin - Ein kleines Herz
DYEAR=2000
DGENRE=Kinderlieder
TTITLE0=Ein kleines Herz
TTITLE1=Du schafst alles, wenn du wiklich willst
TTITLE2=Hallo, kleiner Kuschelbär
EXTD=
EXTT0=
EXTT1=
EXTT2=
PLAYORDER=
